<svg fill="none" stroke-linecap="square" stroke-miterlimit="10" width="600" height="371" xmlns="http://www.w3.org/2000/svg"><path fill="#fff" d="M0 0h600v371H0V0z"/><path stroke="#333" stroke-linecap="butt" d="M77.5 332.5h504"/><path stroke="#ccc" stroke-linecap="butt" d="M77.5 251.5h504M77.5 169.5h504M77.5 88.5h504"/><clipPath id="a"><path d="M77.55 88.283h503.9V332.45H77.55V88.283z"/></clipPath><path clip-path="url(#a)" d="M178 332h-47v-96a2 2 0 0 1 2-2h43a2 2 0 0 1 2 2z"/><path fill="#4285f4" clip-path="url(#a)" d="M178 332h-47v-96a2 2 0 0 1 2-2h43a2 2 0 0 1 2 2z"/><path clip-path="url(#a)" d="M329 332h-47V198a2 2 0 0 1 2-2h43a2 2 0 0 1 2 2z"/><path fill="#4285f4" clip-path="url(#a)" d="M329 332h-47V198a2 2 0 0 1 2-2h43a2 2 0 0 1 2 2z"/><path clip-path="url(#a)" d="M479 332h-47V113a2 2 0 0 1 2-2h43a2 2 0 0 1 2 2z"/><path fill="#4285f4" clip-path="url(#a)" d="M479 332h-47V113a2 2 0 0 1 2-2h43a2 2 0 0 1 2 2z"/><path clip-path="url(#a)" d="M227 332h-47v-20a2 2 0 0 1 2-2h43a2 2 0 0 1 2 2z"/><path fill="#ea4335" clip-path="url(#a)" d="M227 332h-47v-20a2 2 0 0 1 2-2h43a2 2 0 0 1 2 2z"/><path clip-path="url(#a)" d="M378 332h-47v-20a2 2 0 0 1 2-2h43a2 2 0 0 1 2 2z"/><path fill="#ea4335" clip-path="url(#a)" d="M378 332h-47v-20a2 2 0 0 1 2-2h43a2 2 0 0 1 2 2z"/><path clip-path="url(#a)" d="M528 332h-47V222a2 2 0 0 1 2-2h43a2 2 0 0 1 2 2z"/><path fill="#ea4335" clip-path="url(#a)" d="M528 332h-47V222a2 2 0 0 1 2-2h43a2 2 0 0 1 2 2z"/><path fill="#000" d="M29.55 254.07h-6.219v-.938h.875q-1.015-.687-1.015-1.984 0-.563.203-1.031.203-.485.531-.72.328-.233.766-.327.297-.047 1.03-.047h3.829v1.047h-3.781q-.656 0-.969.125-.312.125-.5.437-.203.313-.203.735 0 .672.437 1.172.422.484 1.61.484h3.406v1.047zm-.766-11.063q.5.594.704 1.14.203.532.203 1.157 0 1.031-.5 1.578-.5.547-1.282.547-.453 0-.828-.203-.39-.203-.61-.547-.233-.344-.343-.765-.094-.297-.172-.938-.14-1.266-.36-1.875h-.265q-.656 0-.922.297-.343.406-.343 1.203 0 .734.265 1.094.25.36.907.531l-.141 1.031q-.656-.14-1.063-.468-.406-.329-.625-.938-.218-.61-.218-1.406 0-.797.187-1.297.188-.5.469-.734.281-.235.719-.329.265-.046.968-.046h1.407q1.468 0 1.859-.063.39-.078.75-.281v1.11q-.328.155-.766.202zm-2.359.094q.234.578.406 1.719.094.656.219.922.11.265.328.422.219.14.5.14.422 0 .703-.312.282-.328.282-.938 0-.61-.266-1.078-.266-.484-.734-.703-.36-.172-1.047-.172h-.391zm3.125-3.031h-6.219v-.938h.875q-1.015-.687-1.015-1.984 0-.563.203-1.031.203-.485.531-.72.328-.233.766-.327.297-.047 1.03-.047h3.829v1.047h-3.781q-.656 0-.969.125-.312.125-.5.437-.203.313-.203.735 0 .672.437 1.172.422.484 1.61.484h3.406v1.047zm-3.11-6.61q-1.734 0-2.562-.953-.687-.797-.687-1.953 0-1.281.843-2.094.829-.828 2.313-.828 1.203 0 1.89.36.688.359 1.079 1.062.375.688.375 1.5 0 1.297-.828 2.11-.844.796-2.422.796zm0-1.078q1.188 0 1.782-.515.594-.532.594-1.313 0-.797-.594-1.312-.594-.516-1.813-.516-1.156 0-1.75.531-.593.516-.593 1.297 0 .781.593 1.313.579.515 1.782.515zm1.25-5.89-.156-1.032q.625-.093.954-.484.328-.406.328-1.14 0-.72-.282-1.063-.296-.36-.703-.36-.36 0-.562.313-.14.219-.36 1.078-.296 1.156-.5 1.61-.218.437-.593.671-.375.235-.844.235-.406 0-.766-.188-.36-.187-.593-.515-.172-.25-.297-.672-.125-.422-.125-.922 0-.719.218-1.266.204-.562.563-.828.36-.265.953-.36l.14 1.032q-.468.063-.734.406-.281.328-.281.953 0 .72.25 1.032.234.312.563.312.203 0 .359-.125.172-.14.281-.406.063-.156.266-.938.312-1.125.5-1.562.187-.438.547-.688.359-.25.906-.25.531 0 1 .313.453.297.719.875.25.578.25 1.312 0 1.22-.5 1.86-.516.625-1.5.797zm-.14-11.672.125-1.094q.953.25 1.484.953.532.703.532 1.781 0 1.36-.844 2.172-.844.797-2.36.797-1.562 0-2.421-.812-.875-.813-.875-2.094 0-1.25.843-2.031.844-.797 2.391-.797h.281v4.64q1.032-.062 1.578-.578.532-.515.532-1.297 0-.578-.297-.984-.313-.422-.969-.656zm-1.703 3.453v-3.469q-.797.063-1.188.39-.609.516-.609 1.313 0 .735.484 1.235.485.484 1.313.53zm1.422-10.266.14-1.031q1.063.172 1.672.875.61.703.61 1.719 0 1.281-.828 2.062-.844.766-2.407.766-1 0-1.75-.328-.765-.344-1.14-1.016-.375-.687-.375-1.5 0-1 .515-1.64.5-.657 1.453-.844l.157 1.031q-.625.14-.938.516-.328.375-.328.906 0 .797.578 1.297.563.5 1.797.5 1.266 0 1.828-.485.563-.484.563-1.25 0-.625-.375-1.03-.375-.423-1.172-.548zm-.828-1.547q-1.735 0-2.563-.953-.687-.797-.687-1.953 0-1.281.843-2.094.829-.828 2.313-.828 1.203 0 1.89.36.688.359 1.079 1.062.375.688.375 1.5 0 1.297-.828 2.11-.844.796-2.422.796zm0-1.078q1.187 0 1.78-.515.595-.532.595-1.313 0-.797-.594-1.312-.594-.516-1.813-.516-1.156 0-1.75.531-.593.516-.593 1.297 0 .781.593 1.313.579.515 1.782.515zm3.109-6.312h-6.219v-.938h.875q-1.015-.687-1.015-1.984 0-.563.203-1.031.203-.485.531-.72.328-.233.766-.327.297-.047 1.03-.047h3.829v1.047h-3.781q-.656 0-.969.125-.312.125-.5.437-.203.313-.203.735 0 .672.437 1.172.422.484 1.61.484h3.406v1.047zm0-11.031h-.781q.922.593.922 1.734 0 .75-.407 1.375-.421.625-1.156.969-.734.343-1.687.343-.922 0-1.688-.312-.765-.313-1.156-.938-.406-.625-.406-1.39 0-.563.234-1 .234-.438.61-.719h-3.079v-1.047h8.594v.985zm-3.11 3.328q1.204 0 1.798-.5.578-.5.578-1.188 0-.687-.563-1.172-.562-.484-1.719-.484-1.28 0-1.875.5-.593.484-.593 1.203 0 .703.578 1.172.562.469 1.797.469zm1.25-5.875-.156-1.032q.625-.093.954-.484.328-.406.328-1.14 0-.72-.282-1.063-.296-.36-.703-.36-.36 0-.562.313-.14.219-.36 1.078-.296 1.156-.5 1.61-.218.437-.593.671-.375.235-.844.235-.406 0-.766-.188-.36-.187-.593-.515-.172-.25-.297-.672-.125-.422-.125-.922 0-.719.218-1.266.204-.562.563-.828.36-.265.953-.36l.14 1.032q-.468.063-.734.406-.281.328-.281.953 0 .72.25 1.032.234.312.563.312.203 0 .359-.125.172-.14.281-.406.063-.156.266-.938.312-1.125.5-1.562.187-.438.547-.688.359-.25.906-.25.531 0 1 .313.453.297.719.875.25.578.25 1.312 0 1.22-.5 1.86-.516.625-1.5.797zM65.05 332.216q0-1.532.313-2.454.312-.937.921-1.437.625-.5 1.563-.5.687 0 1.203.281.531.281.875.813.344.515.531 1.265.188.75.188 2.032 0 1.515-.313 2.437-.297.922-.922 1.438-.609.5-1.562.5-1.234 0-1.953-.891-.844-1.063-.844-3.484zm1.078 0q0 2.109.5 2.812.5.703 1.219.703.734 0 1.219-.703.5-.703.5-2.812 0-2.125-.5-2.813-.485-.703-1.235-.703-.719 0-1.156.61-.547.78-.547 2.906zM58.05 252.811l1.11-.094q.124.813.562 1.22.453.405 1.094.405.75 0 1.28-.578.532-.578.532-1.515 0-.907-.516-1.422-.5-.532-1.328-.532-.5 0-.922.235-.406.234-.64.594l-.985-.125.829-4.407h4.28v1H59.91l-.453 2.313q.766-.547 1.61-.547 1.125 0 1.89.781.781.781.781 2.016 0 1.156-.671 2.015-.829 1.032-2.25 1.032-1.172 0-1.922-.657-.735-.656-.844-1.734zm7-1.984q0-1.532.313-2.453.312-.938.921-1.438.625-.5 1.563-.5.687 0 1.203.281.531.282.875.813.344.515.531 1.265.188.75.188 2.032 0 1.515-.313 2.437-.297.922-.922 1.438-.609.5-1.562.5-1.234 0-1.953-.89-.844-1.063-.844-3.485zm1.078 0q0 2.11.5 2.812.5.703 1.219.703.734 0 1.219-.703.5-.703.5-2.812 0-2.125-.5-2.813-.485-.703-1.235-.703-.719 0-1.156.61-.547.78-.547 2.906zM55.019 173.672h-1.047v-6.719q-.39.36-1.016.735-.61.36-1.094.531v-1.016q.875-.421 1.532-1 .672-.593.953-1.156h.672v8.625zm3.031-4.234q0-1.531.313-2.453.312-.938.921-1.438.625-.5 1.563-.5.687 0 1.203.281.531.282.875.813.344.516.531 1.266.188.75.188 2.03 0 1.516-.313 2.438-.297.922-.922 1.438-.609.5-1.562.5-1.235 0-1.953-.89-.844-1.063-.844-3.485zm1.078 0q0 2.11.5 2.812.5.703 1.219.703.734 0 1.219-.703.5-.703.5-2.812 0-2.125-.5-2.813-.485-.703-1.235-.703-.719 0-1.156.61-.547.78-.547 2.906zm5.922 0q0-1.531.313-2.453.312-.938.921-1.438.625-.5 1.563-.5.687 0 1.203.281.531.282.875.813.344.516.531 1.266.188.75.188 2.03 0 1.516-.313 2.438-.297.922-.922 1.438-.609.5-1.562.5-1.234 0-1.953-.89-.844-1.063-.844-3.485zm1.078 0q0 2.11.5 2.812.5.703 1.219.703.734 0 1.219-.703.5-.703.5-2.812 0-2.125-.5-2.813-.485-.703-1.235-.703-.719 0-1.156.61-.547.78-.547 2.906zM55.019 92.283h-1.047v-6.718q-.39.359-1.016.734-.61.36-1.094.531v-1.015q.875-.422 1.532-1 .672-.594.953-1.157h.672v8.625zm3.031-2.25 1.11-.093q.124.812.562 1.218.453.407 1.094.407.75 0 1.28-.579.532-.578.532-1.515 0-.906-.516-1.422-.5-.531-1.328-.531-.5 0-.922.234-.406.234-.64.594l-.985-.125.829-4.406h4.28v1H59.91l-.453 2.312q.766-.547 1.61-.547 1.125 0 1.89.781.781.782.781 2.016 0 1.156-.671 2.016-.829 1.031-2.25 1.031-1.172 0-1.922-.656-.735-.657-.844-1.735zm7-1.984q0-1.531.313-2.453.312-.938.921-1.438.625-.5 1.563-.5.687 0 1.203.282.531.28.875.812.344.516.531 1.266.188.75.188 2.031 0 1.516-.313 2.437-.297.922-.922 1.438-.609.5-1.562.5-1.234 0-1.953-.89-.844-1.063-.844-3.485zm1.078 0q0 2.11.5 2.812.5.704 1.219.704.734 0 1.219-.704.5-.703.5-2.812 0-2.125-.5-2.813-.485-.703-1.235-.703-.719 0-1.156.61-.547.781-.547 2.906zM150.129 346.684l1.062-.093q.079.656.36 1.062.281.406.86.672.593.25 1.327.25.641 0 1.141-.188.5-.203.734-.53.25-.345.25-.735 0-.406-.234-.703-.234-.313-.766-.516-.359-.14-1.547-.422-1.171-.281-1.64-.531-.625-.328-.922-.797-.297-.484-.297-1.078 0-.64.36-1.203.374-.578 1.078-.86.718-.296 1.578-.296.953 0 1.687.312.735.297 1.125.906.39.594.422 1.344l-1.094.078q-.093-.812-.609-1.219-.5-.421-1.484-.421-1.032 0-1.5.375-.47.375-.47.906 0 .469.329.765.328.297 1.703.61 1.39.312 1.906.547.75.36 1.11.89.36.516.36 1.22 0 .687-.392 1.296-.39.594-1.125.938-.734.328-1.656.328-1.172 0-1.969-.329-.78-.343-1.234-1.03-.437-.688-.453-1.548zm12.5.766 1.094.125q-.25.953-.953 1.484-.704.532-1.782.532-1.359 0-2.172-.844-.796-.844-.796-2.36 0-1.562.812-2.421.813-.875 2.094-.875 1.25 0 2.031.843.797.844.797 2.391v.281h-4.64q.062 1.031.577 1.578.516.532 1.297.532.578 0 .985-.297.422-.313.656-.969zm-3.453-1.703h3.469q-.063-.797-.391-1.188-.516-.609-1.313-.609-.734 0-1.234.484-.484.485-.531 1.313zm10.265 2.937q-.593.5-1.14.703-.531.204-1.156.204-1.032 0-1.579-.5-.546-.5-.546-1.282 0-.453.203-.828.203-.39.547-.61.343-.233.765-.343.297-.094.938-.172 1.265-.14 1.875-.36v-.265q0-.656-.297-.922-.406-.343-1.203-.343-.735 0-1.094.265-.36.25-.531.906l-1.032-.14q.141-.656.47-1.063.327-.406.937-.625.61-.218 1.406-.218.797 0 1.297.187.5.188.734.469.235.281.328.719.047.265.047.968v1.407q0 1.468.063 1.859.078.39.281.75h-1.11q-.156-.328-.203-.766zm-.093-2.359q-.578.234-1.719.406-.656.094-.922.219-.266.11-.422.328-.14.219-.14.5 0 .422.312.703.328.281.938.281.609 0 1.078-.265.484-.266.703-.735.172-.359.172-1.046v-.391zm3.015 3.125v-6.219h.953v.938q.36-.656.657-.86.312-.218.687-.218.531 0 1.078.328l-.359.984q-.39-.234-.766-.234-.359 0-.64.219-.266.203-.375.578-.188.562-.188 1.218v3.266h-1.047zm8.078-2.281 1.032.14q-.172 1.063-.875 1.672-.703.61-1.719.61-1.281 0-2.063-.829-.765-.843-.765-2.406 0-1 .328-1.75.344-.765 1.016-1.14.687-.375 1.5-.375 1 0 1.64.515.656.5.844 1.453l-1.031.157q-.14-.625-.516-.938-.375-.328-.906-.328-.797 0-1.297.578-.5.563-.5 1.797 0 1.266.484 1.828.485.563 1.25.563.625 0 1.032-.375.421-.375.546-1.172zm1.938 2.281v-8.594h1.047v3.078q.734-.843 1.86-.843.702 0 1.202.28.516.267.735.75.218.47.218 1.392v3.937h-1.046v-3.938q0-.796-.344-1.156-.344-.36-.969-.36-.469 0-.89.25-.407.235-.594.657-.172.406-.172 1.14v3.407h-1.047zm7.328 0v-8.594h1.125v8.594h-1.125zm2.672 0v-6.219h.937v.875q.688-1.015 1.985-1.015.562 0 1.031.203.484.203.719.531.234.328.328.766.047.296.047 1.03v3.829h-1.047v-3.781q0-.656-.125-.969-.125-.313-.438-.5-.312-.203-.734-.203-.672 0-1.172.437-.484.422-.484 1.61v3.406h-1.047zm9.297-.938.156.922q-.453.094-.797.094-.578 0-.89-.172-.313-.187-.454-.484-.125-.297-.125-1.25v-3.578h-.765v-.813h.765v-1.547l1.047-.625v2.172h1.063v.813h-1.063v3.64q0 .453.047.578.063.125.188.204.125.078.36.078.187 0 .468-.031zm.281-.921 1.031-.157q.094.625.485.953.406.329 1.14.329.72 0 1.063-.282.36-.297.36-.703 0-.36-.313-.562-.219-.14-1.078-.36-1.157-.297-1.61-.5-.437-.218-.672-.593-.234-.375-.234-.844 0-.406.187-.766.188-.36.516-.594.25-.171.672-.296.422-.125.922-.125.719 0 1.265.218.563.203.829.563.265.36.359.953l-1.031.14q-.063-.468-.407-.734-.328-.281-.953-.281-.718 0-1.03.25-.313.234-.313.563 0 .203.125.359.14.172.406.281.156.063.937.266 1.125.312 1.563.5.437.187.687.547.25.359.25.906 0 .531-.312 1-.297.453-.875.719-.578.25-1.313.25-1.218 0-1.859-.5-.625-.516-.797-1.5zM286.547 346.684l1.062-.093q.079.656.36 1.062.281.406.86.672.593.25 1.327.25.64 0 1.14-.188.5-.203.735-.53.25-.345.25-.735 0-.406-.234-.703-.235-.313-.766-.516-.36-.14-1.547-.422-1.171-.281-1.64-.531-.625-.328-.922-.797-.297-.484-.297-1.078 0-.64.36-1.203.374-.578 1.077-.86.72-.296 1.579-.296.953 0 1.687.312.735.297 1.125.906.39.594.422 1.344l-1.094.078q-.094-.812-.61-1.219-.5-.421-1.483-.421-1.032 0-1.5.375-.47.375-.47.906 0 .469.329.765.328.297 1.703.61 1.39.312 1.906.547.75.36 1.11.89.359.516.359 1.22 0 .687-.39 1.296-.391.594-1.126.938-.734.328-1.656.328-1.172 0-1.969-.329-.78-.343-1.234-1.03-.438-.688-.453-1.548zm12.5.766 1.094.125q-.25.953-.954 1.484-.703.532-1.78.532-1.36 0-2.173-.844-.796-.844-.796-2.36 0-1.562.812-2.421.813-.875 2.094-.875 1.25 0 2.031.843.797.844.797 2.391v.281h-4.64q.062 1.031.577 1.578.516.532 1.297.532.578 0 .985-.297.421-.313.656-.969zm-3.453-1.703h3.469q-.063-.797-.391-1.188-.516-.609-1.313-.609-.734 0-1.234.484-.484.485-.531 1.313zm10.265 2.937q-.593.5-1.14.703-.531.204-1.156.204-1.032 0-1.579-.5-.546-.5-.546-1.282 0-.453.203-.828.203-.39.546-.61.344-.233.766-.343.297-.094.938-.172 1.265-.14 1.875-.36v-.265q0-.656-.297-.922-.406-.343-1.203-.343-.735 0-1.094.265-.36.25-.531.906l-1.032-.14q.141-.656.47-1.063.327-.406.937-.625.609-.218 1.406-.218.797 0 1.297.187.5.188.734.469.235.281.328.719.047.265.047.968v1.407q0 1.468.063 1.859.078.39.28.75h-1.108q-.157-.328-.204-.766zm-.093-2.359q-.579.234-1.72.406-.655.094-.921.219-.266.11-.422.328-.14.219-.14.5 0 .422.312.703.328.281.938.281.609 0 1.078-.265.484-.266.703-.735.172-.359.172-1.046v-.391zm3.015 3.125v-6.219h.953v.938q.36-.656.657-.86.312-.218.687-.218.531 0 1.078.328l-.36.984q-.39-.234-.765-.234-.36 0-.64.219-.266.203-.375.578-.188.562-.188 1.218v3.266h-1.047zm8.078-2.281 1.032.14q-.172 1.063-.875 1.672-.704.61-1.72.61-1.28 0-2.062-.829-.765-.843-.765-2.406 0-1 .328-1.75.344-.765 1.015-1.14.688-.375 1.5-.375 1 0 1.641.515.656.5.844 1.453l-1.031.157q-.141-.625-.516-.938-.375-.328-.906-.328-.797 0-1.297.578-.5.563-.5 1.797 0 1.266.484 1.828.485.563 1.25.563.625 0 1.031-.375.422-.375.547-1.172zm1.938 2.281v-8.594h1.047v3.078q.734-.843 1.86-.843.702 0 1.202.28.516.267.735.75.218.47.218 1.392v3.937h-1.046v-3.938q0-.796-.344-1.156-.344-.36-.969-.36-.469 0-.89.25-.407.235-.594.657-.172.406-.172 1.14v3.407h-1.047zm7.187 0v-8.594h5.797v1.016h-4.656v2.656h4.031v1.016h-4.031v3.906h-1.14zm6.782 0v-8.594h1.062v8.594h-1.062zm2.64-3.11q0-1.734.953-2.562.797-.687 1.954-.687 1.28 0 2.093.843.828.828.828 2.313 0 1.203-.359 1.89-.36.688-1.063 1.079-.687.375-1.5.375-1.296 0-2.109-.829-.797-.843-.797-2.421zm1.078 0q0 1.188.516 1.782.531.594 1.313.594.796 0 1.312-.594t.516-1.813q0-1.156-.532-1.75-.515-.593-1.296-.593-.782 0-1.313.593-.516.578-.516 1.782zm10.375 2.344q-.593.5-1.14.703-.531.204-1.156.204-1.032 0-1.579-.5-.546-.5-.546-1.282 0-.453.203-.828.203-.39.546-.61.344-.233.766-.343.297-.094.938-.172 1.265-.14 1.875-.36v-.265q0-.656-.297-.922-.406-.343-1.203-.343-.735 0-1.094.265-.36.25-.531.906l-1.032-.14q.141-.656.47-1.063.327-.406.937-.625.609-.218 1.406-.218.797 0 1.297.187.5.188.734.469.235.281.328.719.047.265.047.968v1.407q0 1.468.063 1.859.078.39.28.75h-1.108q-.157-.328-.204-.766zm-.093-2.359q-.579.234-1.72.406-.655.094-.921.219-.266.11-.422.328-.14.219-.14.5 0 .422.312.703.328.281.938.281.609 0 1.078-.265.484-.266.703-.735.172-.359.172-1.046v-.391zm5.328 2.188.156.921q-.453.094-.797.094-.578 0-.89-.172-.313-.187-.454-.484-.125-.297-.125-1.25v-3.578h-.765v-.813h.765v-1.547l1.047-.625v2.172h1.063v.813h-1.063v3.64q0 .453.047.578.063.125.188.204.125.078.359.078.188 0 .469-.031zm5.875-5.547-1.047.078q-.14-.625-.39-.906-.438-.454-1.063-.454-.5 0-.89.282-.485.375-.782 1.078-.281.687-.297 1.969.375-.579.922-.86.562-.281 1.172-.281 1.047 0 1.781.781.75.781.75 2 0 .813-.36 1.516-.343.687-.952 1.062-.61.36-1.375.36-1.329 0-2.157-.97-.828-.968-.828-3.187 0-2.5.922-3.625.797-.984 2.156-.984 1.016 0 1.656.578.657.563.782 1.563zm-4.297 3.703q0 .547.219 1.047.234.484.64.75.422.265.89.265.657 0 1.142-.531.484-.547.484-1.469 0-.89-.485-1.406-.468-.516-1.187-.516-.719 0-1.219.516-.484.516-.484 1.344zm9.203 2.781v-2.063h-3.719v-.968l3.922-5.563h.86v5.563h1.156v.969h-1.156v2.062h-1.063zm0-3.031v-3.86l-2.688 3.86h2.688zm3.5 1.172 1.031-.157q.094.625.485.953.406.329 1.14.329.719 0 1.063-.282.36-.297.36-.703 0-.36-.313-.562-.22-.14-1.079-.36-1.156-.297-1.609-.5-.437-.218-.672-.593-.234-.375-.234-.844 0-.406.187-.766.188-.36.516-.594.25-.171.672-.296.422-.125.922-.125.719 0 1.265.218.563.203.829.563.265.36.359.953l-1.031.14q-.063-.468-.407-.734-.328-.281-.953-.281-.719 0-1.031.25-.313.234-.313.563 0 .203.125.359.141.172.407.281.156.063.937.266 1.125.312 1.563.5.437.187.687.547.25.359.25.906 0 .531-.312 1-.297.453-.875.719-.578.25-1.313.25-1.219 0-1.86-.5-.624-.516-.796-1.5zM441.465 346.684l1.062-.093q.078.656.36 1.062.28.406.859.672.594.25 1.328.25.64 0 1.14-.188.5-.203.735-.53.25-.345.25-.735 0-.406-.234-.703-.235-.313-.766-.516-.36-.14-1.547-.422-1.172-.281-1.64-.531-.625-.328-.922-.797-.297-.484-.297-1.078 0-.64.36-1.203.374-.578 1.077-.86.72-.296 1.579-.296.953 0 1.687.312.734.297 1.125.906.39.594.422 1.344l-1.094.078q-.094-.812-.61-1.219-.5-.421-1.484-.421-1.03 0-1.5.375-.468.375-.468.906 0 .469.328.765.328.297 1.703.61 1.39.312 1.906.547.75.36 1.11.89.359.516.359 1.22 0 .687-.39 1.296-.391.594-1.126.938-.734.328-1.656.328-1.172 0-1.969-.329-.781-.343-1.234-1.03-.438-.688-.453-1.548zm12.5.766 1.094.125q-.25.953-.954 1.484-.703.532-1.78.532-1.36 0-2.173-.844-.797-.844-.797-2.36 0-1.562.813-2.421.812-.875 2.094-.875 1.25 0 2.03.843.798.844.798 2.391v.281h-4.64q.062 1.031.577 1.578.516.532 1.297.532.578 0 .985-.297.421-.313.656-.969zm-3.453-1.703h3.468q-.062-.797-.39-1.188-.516-.609-1.313-.609-.734 0-1.234.484-.484.485-.531 1.313zm10.265 2.937q-.593.5-1.14.703-.532.204-1.157.204-1.03 0-1.578-.5-.547-.5-.547-1.282 0-.453.204-.828.203-.39.546-.61.344-.233.766-.343.297-.094.938-.172 1.265-.14 1.875-.36v-.265q0-.656-.297-.922-.407-.343-1.203-.343-.735 0-1.094.265-.36.25-.531.906l-1.032-.14q.14-.656.469-1.063.328-.406.938-.625.609-.218 1.406-.218.797 0 1.297.187.5.188.734.469.234.281.328.719.047.265.047.968v1.407q0 1.468.063 1.859.078.39.28.75h-1.109q-.156-.328-.203-.766zm-.093-2.359q-.579.234-1.72.406-.655.094-.921.219-.266.11-.422.328-.14.219-.14.5 0 .422.312.703.328.281.937.281.61 0 1.079-.265.484-.266.703-.735.172-.359.172-1.046v-.391zm3.015 3.125v-6.219h.953v.938q.36-.656.657-.86.312-.218.687-.218.531 0 1.078.328l-.36.984q-.39-.234-.765-.234-.36 0-.64.219-.266.203-.375.578-.188.562-.188 1.218v3.266h-1.047zm8.078-2.281 1.032.14q-.172 1.063-.875 1.672-.704.61-1.72.61-1.28 0-2.062-.829-.765-.843-.765-2.406 0-1 .328-1.75.344-.765 1.015-1.14.688-.375 1.5-.375 1 0 1.641.515.656.5.844 1.453l-1.031.157q-.141-.625-.516-.938-.375-.328-.906-.328-.797 0-1.297.578-.5.563-.5 1.797 0 1.266.484 1.828.485.563 1.25.563.625 0 1.031-.375.422-.375.547-1.172zm1.938 2.281v-8.594h1.047v3.078q.734-.843 1.859-.843.703 0 1.203.28.516.267.735.75.218.47.218 1.392v3.937h-1.047v-3.938q0-.796-.343-1.156-.344-.36-.97-.36-.468 0-.89.25-.406.235-.593.657-.172.406-.172 1.14v3.407h-1.047zm6.75-2.766 1.062-.093q.078.656.36 1.062.28.406.859.672.594.25 1.328.25.64 0 1.14-.188.5-.203.735-.53.25-.345.25-.735 0-.406-.234-.703-.235-.313-.766-.516-.36-.14-1.547-.422-1.172-.281-1.64-.531-.625-.328-.922-.797-.297-.484-.297-1.078 0-.64.36-1.203.374-.578 1.077-.86.72-.296 1.579-.296.953 0 1.687.312.734.297 1.125.906.39.594.422 1.344l-1.094.078q-.094-.812-.61-1.219-.5-.421-1.484-.421-1.03 0-1.5.375-.468.375-.468.906 0 .469.328.765.328.297 1.703.61 1.39.312 1.906.547.75.36 1.11.89.359.516.359 1.22 0 .687-.39 1.296-.391.594-1.126.938-.734.328-1.656.328-1.172 0-1.969-.329-.781-.343-1.234-1.03-.438-.688-.453-1.548zm10.547 1.828.156.922q-.453.094-.797.094-.578 0-.89-.172-.313-.187-.454-.484-.125-.297-.125-1.25v-3.578h-.765v-.813h.765v-1.547l1.047-.625v2.172h1.063v.813h-1.063v3.64q0 .453.047.578.063.125.188.204.125.078.359.078.187 0 .469-.031zm.687.938v-6.219h.953v.938q.36-.656.657-.86.312-.218.687-.218.531 0 1.078.328l-.36.984q-.39-.234-.765-.234-.36 0-.64.219-.266.203-.375.578-.188.562-.188 1.218v3.266h-1.047zm4.016-7.375v-1.219h1.062v1.219h-1.062zm0 7.375v-6.219h1.062v6.219h-1.062zm3 0v-6.219h.937v.875q.688-1.015 1.985-1.015.562 0 1.03.203.485.203.72.531.234.328.328.766.047.296.047 1.03v3.829h-1.047v-3.781q0-.656-.125-.969-.125-.313-.438-.5-.312-.203-.734-.203-.672 0-1.172.437-.484.422-.484 1.61v3.406h-1.047zm6.797.516 1.03.156q.063.469.36.687.39.297 1.063.297.734 0 1.125-.297.406-.297.547-.812.093-.328.078-1.36-.688.813-1.719.813-1.281 0-1.984-.922-.703-.937-.703-2.219 0-.89.312-1.64.328-.766.938-1.172.609-.406 1.437-.406 1.11 0 1.828.89v-.75h.969v5.375q0 1.453-.297 2.063-.297.61-.937.953-.641.36-1.579.36-1.109 0-1.796-.5-.688-.5-.672-1.516zm.875-3.735q0 1.219.484 1.781.484.563 1.219.563.734 0 1.219-.563.5-.562.5-1.75 0-1.14-.516-1.718-.5-.578-1.219-.578-.703 0-1.203.578-.484.562-.484 1.687zm5.906 1.36 1.031-.157q.094.625.485.953.406.329 1.14.329.719 0 1.063-.282.359-.297.359-.703 0-.36-.312-.562-.22-.14-1.079-.36-1.156-.297-1.609-.5-.437-.218-.672-.593-.234-.375-.234-.844 0-.406.187-.766.188-.36.516-.594.25-.171.672-.296.422-.125.922-.125.718 0 1.265.218.563.203.828.563.266.36.36.953l-1.031.14q-.063-.468-.407-.734-.328-.281-.953-.281-.719 0-1.031.25-.313.234-.313.563 0 .203.125.359.141.172.407.281.156.063.937.266 1.125.312 1.563.5.437.187.687.547.25.359.25.906 0 .531-.312 1-.297.453-.875.719-.578.25-1.313.25-1.219 0-1.86-.5-.624-.516-.796-1.5z"/><path fill="#4285f4" d="M250.5 56.917a1 1 0 0 1 1-1h10a1 1 0 0 1 1 1v10a1 1 0 0 1-1 1h-10a1 1 0 0 1-1-1z"/><path fill="#1a1a1a" d="m270.875 64.057 1.031-.156q.094.625.485.953.406.328 1.14.328.719 0 1.063-.281.36-.297.36-.703 0-.36-.313-.563-.22-.14-1.079-.359-1.156-.297-1.609-.5-.437-.219-.672-.594-.234-.375-.234-.843 0-.407.187-.766.188-.36.516-.594.25-.172.672-.297.422-.125.922-.125.719 0 1.265.219.563.203.829.563.265.359.359.953l-1.031.14q-.063-.468-.407-.734-.328-.281-.953-.281-.719 0-1.031.25-.313.234-.313.562 0 .203.125.36.141.171.407.28.156.063.937.266 1.125.313 1.563.5.437.188.687.547.25.36.25.907 0 .53-.312 1-.297.453-.875.718-.578.25-1.313.25-1.219 0-1.86-.5-.624-.515-.796-1.5zm9.719.922.156.922q-.453.094-.797.094-.578 0-.89-.172-.313-.188-.454-.484-.125-.297-.125-1.25V60.51h-.765v-.812h.765V58.15l1.047-.625v2.172h1.063v.812h-1.063v3.641q0 .453.047.578.063.125.188.203.125.078.359.078.188 0 .469-.03zm4.734.938v-.782q-.594.922-1.734.922-.75 0-1.375-.406-.625-.422-.969-1.156-.344-.735-.344-1.688 0-.922.313-1.687.312-.766.937-1.156.625-.407 1.39-.407.563 0 1 .235.438.234.72.609v-3.078h1.046v8.594h-.984zM282 62.807q0 1.203.5 1.797.5.578 1.188.578.687 0 1.171-.562.485-.563.485-1.719 0-1.281-.5-1.875-.485-.594-1.203-.594-.704 0-1.172.578-.469.563-.469 1.797z"/><path fill="#ea4335" d="M303.5 56.917a1 1 0 0 1 1-1h10a1 1 0 0 1 1 1v10a1 1 0 0 1-1 1h-10a1 1 0 0 1-1-1z"/><path fill="#1a1a1a" d="m323.594 65.917 2.265-3.235-2.093-2.984h1.312l.953 1.453q.266.422.438.703.25-.39.469-.687l1.046-1.47h1.266l-2.156 2.923 2.312 3.297h-1.281l-1.281-1.938-.344-.515-1.64 2.453h-1.266zm5.281-1.86 1.031-.156q.094.625.485.953.406.328 1.14.328.719 0 1.063-.281.36-.297.36-.703 0-.36-.313-.563-.22-.14-1.079-.359-1.156-.297-1.609-.5-.437-.219-.672-.594-.234-.375-.234-.843 0-.407.187-.766.188-.36.516-.594.25-.172.672-.297.422-.125.922-.125.719 0 1.265.219.563.203.829.563.265.359.359.953l-1.031.14q-.063-.468-.407-.734-.328-.281-.953-.281-.719 0-1.031.25-.313.234-.313.562 0 .203.125.36.141.171.407.28.156.063.937.266 1.125.313 1.563.5.437.188.687.547.25.36.25.907 0 .53-.312 1-.297.453-.875.718-.578.25-1.313.25-1.219 0-1.86-.5-.624-.515-.796-1.5zm7.031-1.25q0-1.734.953-2.562.797-.688 1.954-.688 1.28 0 2.093.844.828.828.828 2.313 0 1.203-.359 1.89-.36.688-1.063 1.078-.687.375-1.5.375-1.296 0-2.109-.828-.797-.844-.797-2.422zm1.078 0q0 1.188.516 1.782.531.593 1.313.593.796 0 1.312-.593.516-.594.516-1.813 0-1.156-.532-1.75-.515-.594-1.296-.594-.782 0-1.313.594-.516.578-.516 1.781zm6.297 3.11v-6.22h.953v.938q.36-.656.657-.859.312-.219.687-.219.531 0 1.078.328l-.36.985q-.39-.235-.765-.235-.36 0-.64.22-.266.202-.375.577-.188.563-.188 1.219v3.266h-1.047zm6.313-.938.156.922q-.453.094-.797.094-.578 0-.89-.172-.313-.188-.454-.484-.125-.297-.125-1.25V60.51h-.765v-.812h.765V58.15l1.047-.625v2.172h1.063v.812h-1.063v3.641q0 .453.047.578.063.125.188.203.125.078.359.078.188 0 .469-.03z"/><path fill="#757575" d="m23.706 35.972.25 1.562q-.734.157-1.328.157-.953 0-1.484-.297-.516-.313-.735-.797-.218-.5-.218-2.078V28.55h-1.282v-1.375h1.282v-2.563l1.75-1.062v3.625h1.765v1.375h-1.765v6.062q0 .75.093.97.094.202.297.343.219.125.61.125.28 0 .765-.078zm2.172-10.719v-2.015h1.766v2.015h-1.766zm0 12.297V27.175h1.766V37.55h-1.766zm3.985 0V27.175h1.578v1.453q.484-.75 1.296-1.219.813-.468 1.844-.468 1.156 0 1.89.484.735.469 1.048 1.328 1.234-1.812 3.203-1.812 1.547 0 2.375.859.828.86.828 2.625v7.125h-1.75v-6.531q0-1.063-.172-1.516-.172-.469-.625-.75-.437-.281-1.047-.281-1.094 0-1.828.734-.719.719-.719 2.313v6.031h-1.75v-6.734q0-1.172-.437-1.75-.422-.594-1.406-.594-.735 0-1.375.39-.625.391-.907 1.141-.28.75-.28 2.172v5.375h-1.767zm23.109-3.344 1.812.235q-.422 1.578-1.593 2.468-1.157.875-2.97.875-2.265 0-3.608-1.39-1.329-1.407-1.329-3.938 0-2.625 1.344-4.062 1.344-1.453 3.5-1.453 2.078 0 3.39 1.422 1.329 1.406 1.329 3.984 0 .156-.016.469h-7.734q.094 1.703.969 2.609.875.906 2.171.906.97 0 1.641-.5.688-.515 1.094-1.625zm-5.781-2.844h5.796q-.109-1.296-.656-1.953-.844-1.015-2.187-1.015-1.203 0-2.032.812-.828.797-.921 2.157zm19.515 4.61.25 1.562q-.734.157-1.328.157-.953 0-1.484-.297-.516-.313-.735-.797-.218-.5-.218-2.078V28.55h-1.282v-1.375h1.282v-2.563l1.75-1.062v3.625h1.765v1.375h-1.765v6.062q0 .75.093.97.094.202.297.343.219.125.61.125.28 0 .765-.078zm1.516-3.61q0-2.875 1.594-4.265 1.343-1.156 3.265-1.156 2.14 0 3.485 1.406 1.359 1.406 1.359 3.875 0 2-.594 3.156-.594 1.14-1.75 1.781-1.14.625-2.5.625-2.187 0-3.531-1.39-1.328-1.407-1.328-4.032zm1.797 0q0 2 .86 2.985.874.984 2.202.984 1.313 0 2.172-.984.875-1 .875-3.047 0-1.922-.875-2.906-.875-1-2.172-1-1.328 0-2.203 1-.86.984-.86 2.968zm15.14 2.094 1.75-.281q.141 1.047.813 1.61.672.546 1.875.546 1.203 0 1.781-.484.594-.5.594-1.156 0-.594-.516-.938-.36-.234-1.797-.594-1.937-.5-2.687-.843-.734-.36-1.125-.985-.39-.64-.39-1.406 0-.688.312-1.281.328-.594.875-.985.406-.296 1.11-.5.718-.218 1.53-.218 1.22 0 2.141.359.922.344 1.36.953.437.594.609 1.594l-1.719.234q-.125-.797-.688-1.234-.562-.453-1.578-.453-1.218 0-1.734.406-.516.39-.516.922 0 .344.22.625.202.281.671.469.266.093 1.547.437 1.875.5 2.61.828.734.313 1.156.922.421.594.421 1.5 0 .875-.515 1.656-.516.782-1.485 1.203-.968.422-2.187.422-2.016 0-3.078-.843-1.063-.844-1.36-2.485zm17.813-.25 1.812.235q-.422 1.578-1.593 2.468-1.157.875-2.97.875-2.265 0-3.609-1.39-1.328-1.407-1.328-3.938 0-2.625 1.344-4.062 1.344-1.453 3.5-1.453 2.078 0 3.39 1.422 1.329 1.406 1.329 3.984 0 .156-.016.469h-7.734q.094 1.703.969 2.609.875.906 2.171.906.97 0 1.641-.5.688-.515 1.094-1.625zm-5.781-2.844h5.796q-.109-1.296-.656-1.953-.844-1.015-2.187-1.015-1.203 0-2.032.812-.828.797-.921 2.157zm16.453 4.907q-.985.828-1.89 1.172-.907.343-1.938.343-1.704 0-2.625-.828-.922-.844-.922-2.14 0-.766.343-1.391.36-.625.922-1 .563-.39 1.266-.594.516-.125 1.563-.265 2.124-.25 3.124-.594.016-.36.016-.469 0-1.062-.5-1.515-.672-.594-2-.594-1.25 0-1.844.437-.578.438-.859 1.547l-1.719-.234q.235-1.11.766-1.781.531-.688 1.547-1.047 1.015-.375 2.36-.375 1.327 0 2.155.312.828.313 1.22.797.39.469.546 1.188.094.453.094 1.625v2.343q0 2.453.11 3.11.108.64.452 1.234h-1.844q-.265-.547-.343-1.281zm-.157-3.922q-.953.39-2.874.656-1.079.156-1.532.36-.437.187-.687.562-.25.375-.25.844 0 .703.531 1.172.531.468 1.563.468 1.015 0 1.796-.437.797-.453 1.172-1.219.281-.61.281-1.766v-.64zm4.36 5.203V27.175h1.578v1.578q.61-1.11 1.125-1.453.516-.36 1.125-.36.89 0 1.813.563l-.61 1.64q-.64-.39-1.281-.39-.578 0-1.047.36-.453.343-.656.953-.282.937-.282 2.046v5.438h-1.765zm13.797-3.797 1.719.219q-.282 1.797-1.454 2.812-1.156 1-2.859 1-2.125 0-3.422-1.39-1.297-1.39-1.297-3.985 0-1.687.547-2.937.563-1.266 1.703-1.89 1.14-.641 2.485-.641 1.687 0 2.75.859 1.078.86 1.39 2.422l-1.718.265q-.235-1.046-.86-1.562-.625-.531-1.5-.531-1.328 0-2.156.953-.828.953-.828 3 0 2.094.797 3.047.796.937 2.093.937 1.032 0 1.72-.625.702-.64.89-1.953zm3.219 3.797V23.238h1.765v5.125q1.235-1.422 3.11-1.422 1.14 0 1.984.453.86.453 1.219 1.265.375.797.375 2.313v6.578h-1.75v-6.578q0-1.313-.578-1.906-.579-.61-1.61-.61-.781 0-1.484.407-.688.406-.985 1.109-.28.687-.28 1.906v5.672h-1.766zm22.14 0h-1.765V26.347q-.625.61-1.657 1.219-1.031.593-1.86.906v-1.703q1.485-.688 2.579-1.672 1.11-1 1.563-1.922h1.14V37.55zm4.375-7.062q0-2.532.516-4.079.531-1.562 1.562-2.39 1.032-.844 2.594-.844 1.156 0 2.016.469.875.453 1.437 1.328.563.875.89 2.14.329 1.25.329 3.376 0 2.515-.531 4.062-.516 1.547-1.547 2.406-1.016.844-2.594.844-2.078 0-3.25-1.484-1.422-1.797-1.422-5.829zm1.813 0q0 3.53.812 4.703.828 1.156 2.047 1.156 1.203 0 2.031-1.172.828-1.172.828-4.687 0-3.532-.828-4.688-.828-1.172-2.047-1.172-1.218 0-1.937 1.031-.906 1.297-.906 4.829zm9.843 7.062V23.238h2.86l3.375 10.124q.469 1.422.687 2.125.25-.78.766-2.296l3.422-9.954h2.547V37.55h-1.813V25.566l-4.172 11.984h-1.703l-4.14-12.187V37.55h-1.829zm29.938-3.344 1.812.235q-.421 1.578-1.593 2.468-1.157.875-2.97.875-2.265 0-3.608-1.39-1.329-1.407-1.329-3.938 0-2.625 1.344-4.062 1.344-1.453 3.5-1.453 2.078 0 3.39 1.422 1.329 1.406 1.329 3.984 0 .156-.016.469h-7.734q.094 1.703.969 2.609.875.906 2.172.906.968 0 1.64-.5.688-.515 1.094-1.625zm-5.781-2.844h5.797q-.11-1.296-.657-1.953-.843-1.015-2.187-1.015-1.203 0-2.031.812-.829.797-.922 2.157zm9.64 6.188V23.238h1.75V37.55h-1.75zm11.14-3.344 1.813.235q-.421 1.578-1.593 2.468-1.157.875-2.97.875-2.265 0-3.608-1.39-1.329-1.407-1.329-3.938 0-2.625 1.344-4.062 1.344-1.453 3.5-1.453 2.078 0 3.39 1.422 1.329 1.406 1.329 3.984 0 .156-.016.469h-7.734q.094 1.703.969 2.609.875.906 2.172.906.968 0 1.64-.5.688-.515 1.094-1.625zm-5.78-2.844h5.797q-.11-1.296-.657-1.953-.843-1.015-2.187-1.015-1.203 0-2.031.812-.829.797-.922 2.157zm9.672 6.188V27.175h1.578v1.453q.484-.75 1.297-1.219.812-.468 1.843-.468 1.157 0 1.89.484.735.469 1.048 1.328 1.234-1.812 3.203-1.812 1.547 0 2.375.859.828.86.828 2.625v7.125h-1.75v-6.531q0-1.063-.172-1.516-.172-.469-.625-.75-.437-.281-1.047-.281-1.093 0-1.828.734-.719.719-.719 2.313v6.031h-1.75v-6.734q0-1.172-.437-1.75-.422-.594-1.406-.594-.735 0-1.375.39-.625.391-.907 1.141-.28.75-.28 2.172v5.375h-1.766zm23.109-3.344 1.812.235q-.421 1.578-1.593 2.468-1.157.875-2.97.875-2.265 0-3.608-1.39-1.329-1.407-1.329-3.938 0-2.625 1.344-4.062 1.344-1.453 3.5-1.453 2.078 0 3.39 1.422 1.329 1.406 1.329 3.984 0 .156-.016.469h-7.734q.094 1.703.969 2.609.875.906 2.172.906.968 0 1.64-.5.688-.515 1.094-1.625zm-5.781-2.844h5.797q-.11-1.296-.657-1.953-.843-1.015-2.187-1.015-1.203 0-2.031.812-.829.797-.922 2.157zm9.672 6.188V27.175h1.593v1.484q1.14-1.718 3.297-1.718.938 0 1.719.343.797.329 1.187.875.391.547.547 1.297.094.5.094 1.719v6.375h-1.766v-6.312q0-1.079-.203-1.61-.203-.531-.734-.844-.516-.312-1.219-.312-1.125 0-1.937.719-.813.703-.813 2.687v5.672h-1.765zm13.843-1.578.25 1.562q-.734.157-1.328.157-.953 0-1.484-.297-.516-.313-.735-.797-.218-.5-.218-2.078V28.55h-1.282v-1.375h1.282v-2.563l1.75-1.062v3.625h1.765v1.375h-1.765v6.062q0 .75.093.97.094.202.297.343.219.125.61.125.28 0 .765-.078zm1.453-1.516 1.75-.281q.141 1.047.813 1.61.672.546 1.875.546 1.203 0 1.781-.484.594-.5.594-1.156 0-.594-.516-.938-.36-.234-1.797-.594-1.937-.5-2.687-.843-.734-.36-1.125-.985-.39-.64-.39-1.406 0-.688.312-1.281.328-.594.875-.985.406-.296 1.11-.5.718-.218 1.53-.218 1.22 0 2.141.359.922.344 1.36.953.437.594.609 1.594l-1.719.234q-.125-.797-.688-1.234-.562-.453-1.578-.453-1.218 0-1.734.406-.516.39-.516.922 0 .344.22.625.202.281.671.469.266.093 1.547.437 1.875.5 2.61.828.734.313 1.156.922.421.594.421 1.5 0 .875-.515 1.656-.516.782-1.485 1.203-.968.422-2.187.422-2.016 0-3.078-.843-1.063-.844-1.36-2.485zm20.063 7.297q-1.453-1.828-2.453-4.281-1-2.469-1-5.11 0-2.328.75-4.453.875-2.468 2.703-4.921h1.266q-1.188 2.03-1.563 2.906-.594 1.344-.938 2.812-.421 1.828-.421 3.672 0 4.688 2.922 9.375h-1.266zm3.328-3.344 1.703.25q.11.797.594 1.157.656.484 1.797.484 1.219 0 1.875-.484.672-.485.906-1.36.14-.547.125-2.265-1.156 1.359-2.875 1.359-2.14 0-3.313-1.547-1.171-1.547-1.171-3.703 0-1.484.53-2.734.548-1.25 1.563-1.938 1.032-.687 2.407-.687 1.828 0 3.03 1.484v-1.25h1.61v8.969q0 2.422-.5 3.422-.484 1.015-1.562 1.593-1.063.594-2.625.594-1.844 0-3-.828-1.14-.828-1.094-2.516zm1.453-6.234q0 2.047.813 2.984.812.938 2.03.938 1.204 0 2.017-.938.828-.937.828-2.922 0-1.906-.844-2.875-.844-.968-2.031-.968-1.172 0-2 .953-.813.953-.813 2.828zm9.219.188q0-2.875 1.594-4.266 1.343-1.156 3.265-1.156 2.14 0 3.485 1.406 1.359 1.406 1.359 3.875 0 2-.594 3.156-.594 1.14-1.75 1.781-1.14.625-2.5.625-2.187 0-3.531-1.39-1.328-1.407-1.328-4.032zm1.797 0q0 2 .86 2.984.874.984 2.202.984 1.313 0 2.172-.984.875-1 .875-3.047 0-1.922-.875-2.906-.875-1-2.172-1-1.328 0-2.203 1-.86.984-.86 2.968zm21.984 5.187h-1.765V26.347q-.625.61-1.657 1.219-1.031.593-1.86.906v-1.703q1.485-.688 2.579-1.672 1.11-1 1.563-1.922h1.14V37.55zm5.36 0v-2h2v2h-2zm14.25-1.688v1.688h-9.454q-.015-.64.204-1.219.359-.969 1.156-1.906.797-.938 2.297-2.172 2.343-1.906 3.156-3.015.828-1.125.828-2.125 0-1.047-.75-1.766-.75-.719-1.953-.719-1.266 0-2.031.766-.766.765-.766 2.11l-1.813-.188q.188-2.016 1.391-3.078 1.219-1.063 3.266-1.063 2.047 0 3.25 1.14 1.203 1.141 1.203 2.829 0 .86-.36 1.703-.343.828-1.156 1.75-.812.906-2.703 2.515-1.594 1.329-2.047 1.797-.437.47-.734.953h7.016zm1.765-5.375q0-2.53.516-4.078.531-1.562 1.562-2.39 1.031-.844 2.594-.844 1.156 0 2.016.469.875.453 1.437 1.328.563.875.89 2.14.329 1.25.329 3.376 0 2.515-.531 4.062-.516 1.547-1.547 2.406-1.016.844-2.594.844-2.078 0-3.25-1.484-1.422-1.797-1.422-5.829zm1.813 0q0 3.532.812 4.704.828 1.156 2.047 1.156 1.203 0 2.031-1.172.828-1.172.828-4.687 0-3.532-.828-4.688-.828-1.172-2.047-1.172-1.218 0-1.937 1.031-.906 1.297-.906 4.829zm10.828 11.266h-1.25q2.906-4.687 2.906-9.375 0-1.844-.406-3.64-.344-1.47-.938-2.813-.375-.89-1.562-2.938h1.25q1.844 2.454 2.719 4.922.75 2.125.75 4.453 0 2.641-1.016 5.11-1 2.453-2.453 4.281z"/></svg>